<?xml version="1.0" encoding="utf-8"?>
<!-- Generator: Adobe Illustrator 25.1.0, SVG Export Plug-In . SVG Version: 6.00 Build 0)  -->
<svg version="1.1" id="Layer_1" xmlns="http://www.w3.org/2000/svg" xmlns:xlink="http://www.w3.org/1999/xlink" x="0px" y="0px"
	 viewBox="0 0 659.6 208.8" style="enable-background:new 0 0 659.6 208.8;" xml:space="preserve">
<style type="text/css">
	.st0{fill:#FFFFFF;}
</style>
<g>
	<g>
		<path class="st0" d="M99.6,42.2c5.3-12.9,4.9-20.8-1.5-24c-7.7-4-21.4,3.6-41.6,23.2c-30.4,29.4-45,55.4-38.6,69
			c3.3,7,8,9.9,23.2,14.1c12.9,3.4,14.5,4.2,14.5,6.1c0,2.4-6.4,8.9-12,12.3c-8.9,5.3-20.5,9.4-20.5,7.1c0-2.5,1.9-7.6,4-10.5
			c1.6-2.5,1.9-3.4,1-4.5c-1.2-1.5-2.7-0.3-5.3,4.3c-3.6,6.2-3.4,12,0.1,14.8c4.3,3.4,22.9-3.9,32.1-12.5c6.4-6.1,7-10.5,2.1-15.3
			c-3-2.7-4.9-3.6-20.6-8.3c-12.9-4-15.4-6.1-14.7-12.3C23.3,93,38.3,71,61.2,48C72.4,36.7,84,27.3,90.3,24.5
			c4.2-1.9,8.8-2.1,9.5-0.3c2.4,6.5-15.9,43.5-28.5,57.4c-3.4,4-4.2,6.1-1.9,6.1c1.6,0,8.5-7,12.6-13.1
			C87.7,66.1,95.9,51.2,99.6,42.2z"/>
	</g>
	<g>
		<path class="st0" d="M215.8,91.9c-1.6,6.4-3.3,10.2-7.3,17.1c-5.8,9.9-16,20.3-18.1,18.4c-0.1-0.3,0.6-5.6,1.9-12
			c2.4-11.3,2.4-11.6,0.7-13.4c-2.1-2.4-3.1-2.1-5,1c-0.9,1.6-3.6,5.5-5.9,8.8c-2.5,3.3-6.1,8.3-8.2,11c-1.9,2.7-3.7,4.8-4,4.5
			c-0.6-0.6,4.6-15.9,8-23.3c1.5-3.4,2.8-6.8,2.8-7.4s-0.9-1.9-2.1-3c-2.1-2.1-2.2-2.1-4-0.4c-2.5,2.3-5.8,9.2-8.2,16.7
			c-6.3,8.2-19,21.6-20.6,21.6c-1.5,0-0.7-4.3,2.5-13.7c3.3-9.2,3.7-11.7,2.4-13.2c-1.6-2.1-4-1.6-5.6,1c-0.9,1.3-4.8,6.2-8.8,10.8
			c-5.6,6.7-7.1,8-6.5,5.9c1.2-5,8.2-18.3,11.6-21.8l3.4-3.6l2.4,2.2c2.8,2.8,4,2.2,2.4-1c-2.7-5.2-8.6-6.5-13.8-3.4
			c-3.1,1.9-6.3,6.3-9.1,11.8c-1.9,1.8-4.4,4.3-7.7,7.6c-11,11.1-13.7,13.4-13.7,11.3c0-0.3,1.3-4.8,3-9.5c7-20.3,7.3-22,3.6-24
			c-1.6-0.7-2.5,0-9.1,6.7c-4.2,4.2-9.6,10.1-12.3,13.2l-4.9,5.5l1.2-3.4c2.4-6.7,22.7-51.4,32.2-70.8c3.4-6.7,3.6-8.8,1.2-10.7
			c-1.9-1.6-3.1-0.1-8.5,9.4c-12.2,21.7-28.9,60.6-34.9,80.8c-3.4,11.3-3.7,13.1-2.1,14.7s2.1,1.2,5.3-4.3
			c5.2-8.8,24.6-33.1,25.7-31.9c0.3,0.1,0,1.3-0.6,2.8c-4.3,11-5.6,22.9-3,25.8c0.9,1,2.2,1.8,3.1,1.8c2,0,11-8.7,18-16.4
			c-0.8,2.4-1.4,4.8-1.9,7.2c-1.6,8.5-1.6,9.4,0.4,12c1,1.2,2.1,2.2,2.4,2.2c1.2,0,3.3-2.2,9.1-9.5c3.1-4.2,5.8-7.6,5.8-7.6
			c0.1,0,0.1,2.7,0,5.9c-0.3,5.5-0.1,6.2,1.8,8.2c3.4,3.3,6.7,2.8,11.4-1.5c1.7-1.6,7-8.1,12.1-14.6c-0.6,2.6-1,5-1.2,7.1
			c-0.4,5.3-0.3,6.2,1.5,8.3c2.2,3,5,3.1,7.4,0.4c0.9-1,4.2-5.5,7-9.9c6.8-10.4,6.8-10.4,5.9-5.5c-1,5.2-0.3,8.5,2.4,12
			c4,5.3,8.5,3.4,17.2-7.3c9.8-12.2,17.1-29.7,13.5-33.2C216.9,88.2,216.7,88.5,215.8,91.9z"/>
	</g>
	<g>
		<path class="st0" d="M275.1,108.7c-6.1,7.1-17.4,18.4-21.5,21.4c-3,2.2-5.2,2.8-5.2,1.5c0-0.4,2.1-7,4.8-14.5
			c4.5-13.4,4.6-14,3.4-16.8c-0.7-1.8-1.8-3-2.7-3c-1.5,0-17.2,15.4-24,23.5l-3.6,4.3l4.3-10.2c5.8-13.5,5.9-14.1,4.5-16.9
			c-2.2-4.3-4.3-3.1-7.9,4.8c-5.6,12-9.2,26.4-7.6,30c1.5,3.4,3.6,2.7,8.5-3.6c7.7-9.8,16.9-20.3,19.6-22.3l2.4-1.8l-1.5,3.6
			c-2.2,5-4.6,15.1-4.6,19.7c0,2.2,0.6,4.8,1.3,6.1c3,4.3,7.6,2.1,19.1-9.2c10.2-9.9,18.4-20,17.8-21.7
			C281.4,101.7,280.8,102.2,275.1,108.7z"/>
	</g>
	<g>
		<path class="st0" d="M371.1,129.8c-4.5-3.7-9.4-8.8-11.9-12.5c-1.3-2.1-1.2-2.2,2.7-7.4c6.2-8,8-17.5,3.4-17.5
			c-1.5,0-1.6,0.4-1.2,2.1c0.3,1.3-0.1,3.6-1.2,5.8c-1.9,4-6.5,10.1-7.7,10.1c-1.6,0-9.4-16-10.7-22c-0.4-2.2,0.3-3.4,6.8-11
			c14.5-16.9,20-26.6,20-35.6c0-5.3-1.2-8.3-4.6-11.6c-1.5-1.5-3.9-2.1-6.5-2.1c-2.5,0.1-5.5,0.9-8.2,2.5c-11,6.4-16.3,21.8-14,40.7
			l1,8.3l-5.3,6.2c-12.6,15-21.4,29.5-23.2,38.4c-1.6,7.4,0.9,14.1,5.6,15.3c7.1,1.8,21.8-5.6,34.4-17.7c2.4-2.2,4.6-4,4.8-3.9
			s1.9,2.7,4.2,5.5c6.2,8.2,11.4,12.3,15.1,12.3C376.9,135.9,375.3,133,371.1,129.8z M350.2,37.9c3.7-3.6,8-5.3,11.4-5.2
			c4,0,6.8,2.4,6.1,6.7c-0.9,5.6-5.6,13.4-14.5,24c-11.6,14-11.3,13.8-11.9,8.8C339.3,58.1,342.6,45.5,350.2,37.9z M348.5,117.3
			c-6.1,5.9-12,10.2-18.4,13.4c-5.3,2.8-13.8,4.6-15.1,3.1c-1-1,1.2-7.7,4.8-14.5c5.3-9.9,19.9-29.8,21.5-29.2
			c0.4,0.1,2.1,3.7,3.7,8c1.6,4.2,4.2,9.4,5.3,11.4l2.2,4L348.5,117.3z"/>
	</g>
	<g>
		<path class="st0" d="M472,31.6c1.5-4.3,1.6-4.5,5.9-5.3c16.9-3.4,48.2-7.6,56.6-7.7c3.3,0,3.6,0.3,3.6,2.1c0,2.8,1,3.3,3.3,1.8
			s2.5-5.2,0.6-7.7c-1-1.3-2.1-1.6-7.9-1.5c-9.1,0.3-27.5,2.5-45.3,5.5L474,21.1l-3.4-3.4l-2.7,2.5c-2.2,2.2-4.3,3-12.9,4.9
			c-16.2,3.6-43.9,11.3-48.8,13.5c-3.3,1.6-4.5,2.5-4.5,3.9c0,2.2,1.6,2.2,7.9,0.1c6.2-2.2,49.3-13.1,49.7-12.6
			c0.3,0.1-0.9,2.4-2.7,4.8c-3.1,4.9-3.4,5.8-2.1,7.7c0.7,1,1.5,0.6,4.6-3l3.9-4.2l-2.5,6.4c-10.8,26.4-22,59.2-27.3,80.9
			c-4.6,18.6-5.2,27.9-1.9,31.3c1.8,1.8,2.8,0.3,2.8-4.5c0-8.8,11.9-47.2,28.5-91.9C466.8,45.8,471.1,34.2,472,31.6z"/>
	</g>
	<g>
		<path class="st0" d="M653.7,102.5c-0.6-6.2-5.6-12.5-8.6-10.7c-2.2,1.2-11.6,12-14.8,16.9c-1.6,2.4-3.1,4.3-3.3,4.2
			s0.6-3.7,1.8-7.9c2.5-8.5,2.7-9.2,0.6-11c-3.3-3-4.6-1.8-8,7.4c-1.2,0.2-2.7,0.5-4.6,1.1c-8.8,2.2-15.9,1.2-17.4-2.7
			c-0.4-1.2-1.5-2.4-2.2-2.7c-0.9-0.3-2.1-1.2-2.7-1.9c-1.2-1.8-3-2.5-5-2.7c-2.5,0-5.3,1.2-7.6,3.7c-3.1,3.2-6.4,10.7-7.9,17.2
			c-1.3,1.5-2.8,3.2-4.4,5c-5.3,6.2-11.6,12.5-13.7,13.8l-4,2.5l-0.3-3.4c-0.1-3.1,2.7-15.7,6.7-28.6c5.5-17.7,21.5-54.6,24-55.5
			c1.9-0.6,8.5-13.4,8.5-16.3c0-0.9-0.7-2.4-1.8-3.1c-1.6-1.5-1.6-1.5-4.2,1.2c-9.2,9.9-27,51-34.7,78.8
			c-13.5,14.4-19.2,20-18.9,18.5c1.2-4.2,3.1-17.7,3.7-24c0.4-6.7,0.4-7-1.8-9.2c-1.3-1.3-2.7-2.1-3-1.6c-0.4,0.4-4,6.8-7.9,14.2
			c-6.7,12.6-13.5,22.6-15.9,23.5c-3.1,1,1.5-15.4,7.9-27.8l3.9-7.6l-4.3-4.2l-2.4,2.4c-1.3,1.3-3.9,5-5.5,8.5
			c-0.8,1.7-1.6,3.3-2.2,5c-0.7,0.9-1.5,1.9-2.4,3c-5.9,8-19.9,22.9-21.5,22.9c-1.5,0-0.7-4.3,2.5-13.7c3.3-9.2,3.7-11.7,2.4-13.2
			c-1.6-2.1-4-1.6-5.6,1c-0.9,1.3-4.8,6.2-8.8,10.8c-5.6,6.7-7.1,8-6.5,5.9c1.2-5,8.2-18.3,11.6-21.8l3.4-3.6l2.4,2.2
			c2.8,2.8,4,2.2,2.4-1c-2.7-5.2-8.6-6.5-13.8-3.4c-5.6,3.4-11.9,15.3-14.4,27.5c-1.6,8.5-1.6,9.4,0.4,12c1,1.2,2.1,2.2,2.4,2.2
			c1.2,0,3.3-2.2,9.1-9.5c3.1-4.2,5.8-7.6,5.8-7.6c0.1,0,0.1,2.7,0,5.9c-0.3,5.5-0.1,6.2,1.8,8.2c3.4,3.3,6.7,2.8,11.4-1.5
			c2.1-1.9,9.2-10.8,14.9-18.3c-1.6,7-1.4,13.1,0.9,16.5c1.2,1.6,2.8,3.1,3.7,3.3c3.9,0.4,8.6-5.5,17.2-21.7
			c2.4-4.6,4.5-7.9,4.5-7.1c0,1.9-3.6,18.7-5.9,27.6c-2.1,7.6-1.8,7.1-8.6,14.5c-15,15.9-26.3,31.6-28.6,39.3
			c-1.6,5.8-0.6,10.4,2.8,13.1c7,5.5,16.2-1.3,24.5-18.1c5.8-11.7,10.4-23.5,14.7-36.8l3.3-10.2l9.5-9.8c3.7-3.9,6.8-7.2,9.4-10
			c-0.2,0.7-0.3,1.4-0.5,2.1c-2.5,11.7-2.2,16,1.6,20.3c0.6,0.7,2.1,1.5,3,1.5c4.2-0.1,8.2-3.7,19.7-17.5c0.2-0.2,0.4-0.5,0.6-0.7
			c0,0.1,0,0.2,0,0.3c0,3.7,1.8,8.3,4.2,10.7c3,2.8,8.9,2.1,11.9-1.5c2.5-3.1,7.9-15.3,8.9-19.9c0.4-2.8,1-5,1.2-5
			c0,0,1.6,0.7,3.4,1.5c3.9,1.6,12,1.1,17.4-0.4c-3.3,9.8-6.8,24-6.5,26.5c0.1,1,0.9,2.8,1.8,3.9c1.8,2.2,4.8,2.4,5.3,0.3
			c0.3-0.9,2.5-5.6,5-10.7c4.9-10.1,14.2-23.6,18.6-27.2l2.8-2.4l0.9,3.4c0.9,4,2.4,5.9,4.8,5.9C653.7,105.4,654,104.8,653.7,102.5z
			 M516.4,148.9c0,0.4-1.6,5.8-3.9,11.7c-5.8,16-11,26.1-16,31.5c-5.3,5.5-7.7,6.5-9.2,3.4c-2.4-5.2,2.5-15.4,14-29.7
			c7.1-9.1,14.2-16.9,15.1-17.1L516.4,148.9L516.4,148.9z M584.8,126.4c-4.9,4.2-6.2,2.8-4.6-4.8c2.5-12.2,8.6-22.7,12.8-22.6
			c0.3,0,0.6,0,0.9,0.1C598.2,100.8,591.5,120.6,584.8,126.4z"/>
	</g>
</g>
<g>
	<path class="st0" d="M142,172.7h8.3v1.6h-6.5v4.9h5.5v1.6h-5.5v6.5H142V172.7z"/>
	<path class="st0" d="M155,172.7h4.5c2.9,0,5.1,1.1,5.1,4.1c0,2.9-2.1,4.3-5.1,4.3h-2.7v6.1H155V172.7z M159.3,179.6
		c2.2,0,3.5-0.9,3.5-2.8c0-1.9-1.2-2.6-3.5-2.6h-2.4v5.4H159.3z M159.2,180.6l1.4-1l4.4,7.6H163L159.2,180.6z"/>
	<path class="st0" d="M169.8,172.7h1.8v14.4h-1.8V172.7z"/>
	<path class="st0" d="M177.7,172.7h3.6c4.4,0,6.8,2.6,6.8,7.2s-2.4,7.3-6.7,7.3h-3.7V172.7z M181.2,185.7c3.4,0,5.1-2.1,5.1-5.8
		s-1.7-5.7-5.1-5.7h-1.6v11.4H181.2z"/>
	<path class="st0" d="M196.2,172.7h2.1l4.9,14.4h-1.9l-2.5-8.1c-0.5-1.6-1-3.2-1.4-4.9h-0.1c-0.4,1.7-0.9,3.3-1.4,4.9l-2.5,8.1h-1.9
		L196.2,172.7z M193.9,181.3h6.6v1.5h-6.6V181.3z"/>
	<path class="st0" d="M209.5,181.6l-4.3-8.8h2l1.9,4.1c0.5,1.1,0.9,2.1,1.4,3.1h0.1c0.5-1.1,1-2.1,1.4-3.1l1.9-4.1h1.9l-4.3,8.8v5.6
		h-1.8V181.6z"/>
	<path class="st0" d="M216.9,189.8c1.2-0.5,2-1.5,2-2.7l-0.2-1.6l0.9,1.3c-0.2,0.3-0.6,0.4-0.9,0.4c-0.7,0-1.3-0.4-1.3-1.3
		c0-0.8,0.6-1.3,1.3-1.3c1,0,1.5,0.8,1.5,2.1c0,1.9-1.1,3.4-2.9,4.1L216.9,189.8z"/>
	<path class="st0" d="M231,185.3l1.1-1.3c1,1.1,2.5,1.8,4,1.8c1.9,0,3-0.9,3-2.3c0-1.5-1-1.9-2.4-2.5l-2.1-0.9
		c-1.3-0.6-2.9-1.6-2.9-3.7c0-2.2,1.9-3.8,4.5-3.8c1.7,0,3.2,0.7,4.3,1.8l-1,1.2c-0.9-0.8-1.9-1.4-3.3-1.4c-1.6,0-2.7,0.8-2.7,2.1
		c0,1.4,1.3,1.9,2.4,2.4l2.1,0.9c1.7,0.7,3,1.7,3,3.9c0,2.3-1.9,4.1-4.9,4.1C234,187.4,232.3,186.6,231,185.3z"/>
	<path class="st0" d="M246,172.7h8.3v1.6h-6.5v4.5h5.5v1.6h-5.5v5.2h6.7v1.6H246V172.7z"/>
	<path class="st0" d="M259.8,172.7h4.1c3.2,0,5.4,1.1,5.4,4.3c0,3-2.2,4.5-5.3,4.5h-2.4v5.7h-1.8V172.7z M263.8,179.9
		c2.5,0,3.7-0.9,3.7-3c0-2.1-1.3-2.8-3.8-2.8h-2.1v5.7H263.8z"/>
	<path class="st0" d="M276.9,174.3h-4.4v-1.6h10.6v1.6h-4.4v12.9h-1.8V174.3z"/>
	<path class="st0" d="M287.9,172.7h8.3v1.6h-6.5v4.5h5.5v1.6h-5.5v5.2h6.7v1.6h-8.5V172.7z"/>
	<path class="st0" d="M301.7,172.7h2.2l2.8,7.7c0.3,1,0.7,2,1,3h0.1c0.3-1,0.7-2,1-3l2.7-7.7h2.2v14.4H312v-8c0-1.3,0.1-3,0.2-4.3
		h-0.1l-1.1,3.3l-2.7,7.5h-1.2l-2.7-7.5l-1.1-3.3h-0.1c0.1,1.3,0.2,3,0.2,4.3v8h-1.7V172.7z"/>
	<path class="st0" d="M319.9,172.7h4.3c2.9,0,5,1,5,3.5c0,1.4-0.8,2.7-2.1,3.1v0.1c1.7,0.3,2.9,1.5,2.9,3.5c0,2.8-2.2,4.2-5.5,4.2
		h-4.6V172.7z M323.9,178.9c2.5,0,3.5-0.9,3.5-2.4c0-1.7-1.2-2.3-3.4-2.3h-2.2v4.7H323.9z M324.3,185.7c2.5,0,3.9-0.9,3.9-2.8
		c0-1.8-1.4-2.6-3.9-2.6h-2.5v5.4H324.3z"/>
	<path class="st0" d="M335,172.7h8.3v1.6h-6.5v4.5h5.5v1.6h-5.5v5.2h6.7v1.6H335V172.7z"/>
	<path class="st0" d="M348.8,172.7h4.5c2.9,0,5.1,1.1,5.1,4.1c0,2.9-2.1,4.3-5.1,4.3h-2.7v6.1h-1.8V172.7z M353.1,179.6
		c2.2,0,3.5-0.9,3.5-2.8c0-1.9-1.2-2.6-3.5-2.6h-2.4v5.4H353.1z M353,180.6l1.4-1l4.4,7.6h-2.1L353,180.6z"/>
	<path class="st0" d="M369.1,186.1c4.2-4.2,6.6-6.7,6.6-9c0-1.6-0.9-2.7-2.7-2.7c-1.2,0-2.2,0.7-3,1.7l-1.1-1
		c1.2-1.3,2.4-2.1,4.3-2.1c2.6,0,4.2,1.6,4.2,4.1c0,2.6-2.4,5.3-5.7,8.7c0.8-0.1,1.6-0.1,2.4-0.1h4.1v1.6h-9.1V186.1z"/>
	<path class="st0" d="M388,177.8c0-0.7,0.1-2,0.1-2.7H388c-0.4,0.7-0.7,1.3-1.1,2l-3.3,4.8h8v1.4h-9.9v-1.2l6-9h2v14H388V177.8z"/>
	<path class="st0" d="M395.5,189.8c1.2-0.5,2-1.5,2-2.7l-0.2-1.6l0.9,1.3c-0.2,0.3-0.6,0.4-0.9,0.4c-0.7,0-1.3-0.4-1.3-1.3
		c0-0.8,0.6-1.3,1.3-1.3c1,0,1.5,0.8,1.5,2.1c0,1.9-1.1,3.4-2.9,4.1L395.5,189.8z"/>
	<path class="st0" d="M409.6,186.1c4.2-4.2,6.6-6.7,6.6-9c0-1.6-0.9-2.7-2.7-2.7c-1.2,0-2.2,0.7-3,1.7l-1.1-1
		c1.2-1.3,2.4-2.1,4.3-2.1c2.6,0,4.2,1.6,4.2,4.1c0,2.6-2.4,5.3-5.7,8.7c0.8-0.1,1.6-0.1,2.4-0.1h4.1v1.6h-9.1V186.1z"/>
	<path class="st0" d="M422.8,180.1c0-4.7,1.7-7.2,4.5-7.2c2.8,0,4.5,2.5,4.5,7.2c0,4.7-1.7,7.3-4.5,7.3
		C424.5,187.4,422.8,184.8,422.8,180.1z M430.1,180.1c0-4.1-1.1-5.8-2.7-5.8s-2.7,1.7-2.7,5.8c0,4.1,1.1,5.9,2.7,5.9
		S430.1,184.2,430.1,180.1z"/>
	<path class="st0" d="M435.9,186.1c4.2-4.2,6.6-6.7,6.6-9c0-1.6-0.9-2.7-2.7-2.7c-1.2,0-2.2,0.7-3,1.7l-1.1-1
		c1.2-1.3,2.4-2.1,4.3-2.1c2.6,0,4.2,1.6,4.2,4.1c0,2.6-2.4,5.3-5.7,8.7c0.8-0.1,1.6-0.1,2.4-0.1h4.1v1.6h-9.1V186.1z"/>
	<path class="st0" d="M449.9,185.7h3.2v-10.3h-2.6v-1.2c1.3-0.2,2.2-0.6,3-1h1.4v12.5h2.9v1.5h-7.9V185.7z"/>
</g>
</svg>
